<svg width="177" height="37" viewBox="0 0 177 37" fill="none" xmlns="http://www.w3.org/2000/svg">
<path d="M7.23639 4.53823H28.8409V7.50872H31.8114V29.181H29.7185V32.354H7.03425V29.2482H3.99609V7.44105H7.03425C7.03425 7.44105 7.30406 4.471 7.23639 4.53823Z" fill="white"/>
<path d="M34.9962 8.53556C35.782 8.53556 36.4186 7.89859 36.4186 7.11319V1.42281C36.4186 0.63697 35.7816 0 34.9962 0H29.3058C28.52 0 27.883 0.63697 27.883 1.42281V2.84519H8.53556V1.42281C8.53556 0.63697 7.89859 0 7.11275 0H1.42238C0.636534 0 0 0.63697 0 1.42281V7.11319C0 7.89903 0.636971 8.53556 1.42238 8.53556H2.84475V27.883H1.42238C0.636534 27.883 0 28.52 0 29.3058V34.9962C0 35.782 0.636971 36.419 1.42238 36.419H7.11275C7.89859 36.419 8.53556 35.782 8.53556 34.9962V33.5734H27.883V34.9962C27.883 35.782 28.52 36.419 29.3058 36.419H34.9962C35.782 36.419 36.4186 35.782 36.4186 34.9962V29.3058C36.4186 28.52 35.7816 27.883 34.9962 27.883H33.5734V8.53556H34.9962ZM30.7282 2.84519H33.5734V5.69037H30.7282V2.84519ZM2.84519 2.84519H5.69038V5.69037H2.84519V2.84519ZM5.69038 33.5734H2.84519V30.7282H5.69038V33.5734ZM33.5734 33.5734H30.7282V30.7282H33.5734V33.5734ZM30.7282 27.883H29.3058C28.52 27.883 27.883 28.52 27.883 29.3058V30.7286H8.53556V29.3058C8.53556 28.52 7.89859 27.883 7.11275 27.883H5.69038V8.53556H7.11275C7.89859 8.53556 8.53556 7.89859 8.53556 7.11319V5.69081H27.883V7.11319C27.883 7.89903 28.52 8.53556 29.3058 8.53556H30.7282V27.883Z" fill="#161933"/>
<path d="M23.8993 11.0977H12.5185C11.7327 11.0977 11.0957 11.7346 11.0957 12.52V15.3652C11.0957 16.1511 11.7327 16.7876 12.5185 16.7876C13.3044 16.7876 13.9409 16.1506 13.9409 15.3652V13.9428H16.7861V22.4784H15.3633C14.5774 22.4784 13.9409 23.1154 13.9409 23.9008C13.9409 24.6866 14.5779 25.3236 15.3633 25.3236H21.0536C21.8395 25.3236 22.476 24.6866 22.476 23.9008C22.476 23.1149 21.839 22.4784 21.0536 22.4784H19.6308V13.9428H22.476V15.3652C22.476 16.1511 23.113 16.7876 23.8988 16.7876C24.6847 16.7876 25.3216 16.1506 25.3216 15.3652V12.52C25.3221 11.7342 24.6851 11.0977 23.8993 11.0977Z" fill="#FF5539"/>
<path d="M46.86 25.709V9.86898H48.708V19.417L53.262 14.797H55.616L50.754 19.659V19.791L56.21 25.709H53.922L48.708 20.033V25.709H46.86ZM64.3194 25.973C63.2927 25.973 62.3834 25.7383 61.5914 25.269C60.814 24.785 60.198 24.1177 59.7434 23.267C59.2887 22.4017 59.0614 21.397 59.0614 20.253C59.0614 19.109 59.2814 18.1117 59.7214 17.261C60.176 16.3957 60.7994 15.7283 61.5914 15.259C62.3834 14.775 63.3074 14.533 64.3634 14.533C65.4194 14.533 66.3214 14.775 67.0694 15.259C67.8174 15.7283 68.3894 16.3517 68.7854 17.129C69.1814 17.9063 69.3794 18.7423 69.3794 19.637C69.3794 19.7983 69.372 19.9597 69.3574 20.121C69.3574 20.2823 69.3574 20.4657 69.3574 20.671H60.8874C60.9314 21.4777 61.1147 22.1523 61.4374 22.695C61.7747 23.223 62.1927 23.619 62.6914 23.883C63.2047 24.147 63.7474 24.279 64.3194 24.279C65.126 24.279 65.7567 24.1103 66.2114 23.773C66.666 23.4357 67.0107 22.9663 67.2454 22.365H69.0714C68.822 23.377 68.3014 24.235 67.5094 24.939C66.7174 25.6283 65.654 25.973 64.3194 25.973ZM64.3194 16.183C63.4687 16.183 62.7207 16.4397 62.0754 16.953C61.4447 17.4663 61.056 18.185 60.9094 19.109H67.5534C67.4947 18.1997 67.1647 17.4883 66.5634 16.975C65.9767 16.447 65.2287 16.183 64.3194 16.183ZM74.0788 30.549L76.7628 24.653H76.1248L71.8128 14.797H73.8148L77.4008 23.245L81.1848 14.797H83.1208L76.0148 30.549H74.0788ZM90.9662 25.973C90.1302 25.973 89.4189 25.8043 88.8322 25.467C88.2602 25.115 87.8349 24.6383 87.5562 24.037H87.4242L87.2262 25.709H85.7082V9.86898H87.5562V16.359C87.8349 15.875 88.2675 15.4497 88.8542 15.083C89.4555 14.7163 90.1595 14.533 90.9662 14.533C91.9049 14.533 92.7335 14.753 93.4522 15.193C94.1709 15.633 94.7355 16.2783 95.1462 17.129C95.5569 17.9797 95.7622 19.0137 95.7622 20.231C95.7622 21.463 95.5569 22.5117 95.1462 23.377C94.7355 24.2277 94.1635 24.873 93.4302 25.313C92.7115 25.753 91.8902 25.973 90.9662 25.973ZM90.7242 24.213C91.6482 24.213 92.4035 23.8903 92.9902 23.245C93.5915 22.585 93.8922 21.5877 93.8922 20.253C93.8922 18.9183 93.5915 17.9283 92.9902 17.283C92.4035 16.623 91.6482 16.293 90.7242 16.293C89.8002 16.293 89.0375 16.623 88.4362 17.283C87.8349 17.9283 87.5342 18.9183 87.5342 20.253C87.5342 21.5877 87.8349 22.585 88.4362 23.245C89.0375 23.8903 89.8002 24.213 90.7242 24.213ZM99.0316 25.709V24.125H101.826V16.931C101.826 16.5643 101.65 16.381 101.298 16.381H99.3176V14.797H101.98C102.464 14.797 102.852 14.929 103.146 15.193C103.439 15.457 103.586 15.8457 103.586 16.359V16.821H103.674C103.85 16.0877 104.18 15.523 104.664 15.127C105.162 14.731 105.852 14.533 106.732 14.533H108.734V16.491H106.468C105.573 16.491 104.884 16.7917 104.4 17.393C103.916 17.9797 103.674 18.735 103.674 19.659V24.125H107.106V25.709H99.0316ZM117.085 25.973C116.058 25.973 115.149 25.7383 114.357 25.269C113.58 24.785 112.964 24.1177 112.509 23.267C112.054 22.4017 111.827 21.397 111.827 20.253C111.827 19.109 112.047 18.1117 112.487 17.261C112.942 16.3957 113.565 15.7283 114.357 15.259C115.149 14.775 116.073 14.533 117.129 14.533C118.185 14.533 119.087 14.775 119.835 15.259C120.583 15.7283 121.155 16.3517 121.551 17.129C121.947 17.9063 122.145 18.7423 122.145 19.637C122.145 19.7983 122.138 19.9597 122.123 20.121C122.123 20.2823 122.123 20.4657 122.123 20.671H113.653C113.697 21.4777 113.88 22.1523 114.203 22.695C114.54 23.223 114.958 23.619 115.457 23.883C115.97 24.147 116.513 24.279 117.085 24.279C117.892 24.279 118.522 24.1103 118.977 23.773C119.432 23.4357 119.776 22.9663 120.011 22.365H121.837C121.588 23.377 121.067 24.235 120.275 24.939C119.483 25.6283 118.42 25.973 117.085 25.973ZM117.085 16.183C116.234 16.183 115.486 16.4397 114.841 16.953C114.21 17.4663 113.822 18.185 113.675 19.109H120.319C120.26 18.1997 119.93 17.4883 119.329 16.975C118.742 16.447 117.994 16.183 117.085 16.183ZM129.242 25.973C128.377 25.973 127.658 25.819 127.086 25.511C126.514 25.203 126.089 24.7997 125.81 24.301C125.532 23.7877 125.392 23.2303 125.392 22.629C125.392 21.5143 125.796 20.671 126.602 20.099C127.424 19.5123 128.516 19.219 129.88 19.219H132.872V18.999C132.872 17.0923 132 16.139 130.254 16.139C129.55 16.139 128.956 16.293 128.472 16.601C128.003 16.909 127.702 17.393 127.57 18.053H125.678C125.752 17.3197 125.994 16.689 126.404 16.161C126.83 15.633 127.372 15.2297 128.032 14.951C128.692 14.6723 129.433 14.533 130.254 14.533C131.809 14.533 132.938 14.9437 133.642 15.765C134.361 16.5717 134.72 17.6497 134.72 18.999V25.709H133.136L132.982 24.015H132.828C132.506 24.543 132.073 25.005 131.53 25.401C131.002 25.7823 130.24 25.973 129.242 25.973ZM129.572 24.345C130.276 24.345 130.87 24.1763 131.354 23.839C131.853 23.5017 132.227 23.0543 132.476 22.497C132.74 21.9397 132.872 21.331 132.872 20.671H130.034C129.037 20.671 128.333 20.8397 127.922 21.177C127.526 21.5143 127.328 21.9617 127.328 22.519C127.328 23.091 127.519 23.5383 127.9 23.861C128.282 24.1837 128.839 24.345 129.572 24.345ZM139.2 25.709V9.86898H141.048V19.417L145.602 14.797H147.956L143.094 19.659V19.791L148.55 25.709H146.262L141.048 20.033V25.709H139.2ZM156.659 25.973C155.633 25.973 154.723 25.7383 153.931 25.269C153.154 24.785 152.538 24.1177 152.083 23.267C151.629 22.4017 151.401 21.397 151.401 20.253C151.401 19.109 151.621 18.1117 152.061 17.261C152.516 16.3957 153.139 15.7283 153.931 15.259C154.723 14.775 155.647 14.533 156.703 14.533C157.759 14.533 158.661 14.775 159.409 15.259C160.157 15.7283 160.729 16.3517 161.125 17.129C161.521 17.9063 161.719 18.7423 161.719 19.637C161.719 19.7983 161.712 19.9597 161.697 20.121C161.697 20.2823 161.697 20.4657 161.697 20.671H153.227C153.271 21.4777 153.455 22.1523 153.777 22.695C154.115 23.223 154.533 23.619 155.031 23.883C155.545 24.147 156.087 24.279 156.659 24.279C157.466 24.279 158.097 24.1103 158.551 23.773C159.006 23.4357 159.351 22.9663 159.585 22.365H161.411C161.162 23.377 160.641 24.235 159.849 24.939C159.057 25.6283 157.994 25.973 156.659 25.973ZM156.659 16.183C155.809 16.183 155.061 16.4397 154.415 16.953C153.785 17.4663 153.396 18.185 153.249 19.109H159.893C159.835 18.1997 159.505 17.4883 158.903 16.975C158.317 16.447 157.569 16.183 156.659 16.183ZM164.989 25.709V24.125H167.783V16.931C167.783 16.5643 167.607 16.381 167.255 16.381H165.275V14.797H167.937C168.421 14.797 168.809 14.929 169.103 15.193C169.396 15.457 169.543 15.8457 169.543 16.359V16.821H169.631C169.807 16.0877 170.137 15.523 170.621 15.127C171.119 14.731 171.809 14.533 172.689 14.533H174.691V16.491H172.425C171.53 16.491 170.841 16.7917 170.357 17.393C169.873 17.9797 169.631 18.735 169.631 19.659V24.125H173.063V25.709H164.989Z" fill="black"/>
</svg>
